<?xml version="1.0" encoding="UTF-8" standalone="no"?>
<svg
   xmlns:dc="http://purl.org/dc/elements/1.1/"
   xmlns:cc="http://creativecommons.org/ns#"
   xmlns:rdf="http://www.w3.org/1999/02/22-rdf-syntax-ns#"
   xmlns:svg="http://www.w3.org/2000/svg"
   xmlns="http://www.w3.org/2000/svg"
   id="svg33"
   version="1.1"
   height="844"
   width="390">
  <metadata
     id="metadata37">
    <rdf:RDF>
      <cc:Work
         rdf:about="">
        <dc:format>image/svg+xml</dc:format>
        <dc:type
           rdf:resource="http://purl.org/dc/dcmitype/StillImage" />
        <dc:title></dc:title>
      </cc:Work>
    </rdf:RDF>
  </metadata>
  <defs
     id="defs17">
    <linearGradient
       gradientUnits="userSpaceOnUse"
       gradientTransform="scale(1.4754222,0.67777209)"
       id="a"
       y2="2583.8931"
       x2="1134.5905"
       y1="1112.4684"
       x1="1134.5905">
      <stop
         id="stop2"
         offset="0%"
         stop-opacity="0"
         stop-color="#F8FBFF" />
      <stop
         id="stop4"
         offset="100%"
         stop-color="#F8FBFF" />
    </linearGradient>
    <linearGradient
       gradientUnits="userSpaceOnUse"
       gradientTransform="scale(1.6459992,0.60753372)"
       id="b"
       y2="1241.0834"
       x2="1899.8036"
       y1="2091.8386"
       x1="974.28381">
      <stop
         id="stop7"
         offset="0%"
         stop-opacity="0"
         stop-color="#F8FBFF" />
      <stop
         id="stop9"
         offset="100%"
         stop-color="#D3DDEC" />
    </linearGradient>
    <linearGradient
       gradientUnits="userSpaceOnUse"
       gradientTransform="scale(1.8965277,0.5272794)"
       id="c"
       y2="2047.8365"
       x2="458.9028"
       y1="2047.8365"
       x1="1047.4236">
      <stop
         id="stop12"
         offset="0%"
         stop-opacity="0"
         stop-color="#D3DDEC" />
      <stop
         id="stop14"
         offset="100%"
         stop-opacity=".48"
         stop-color="#D3DDEC" />
    </linearGradient>
    <linearGradient
       gradientUnits="userSpaceOnUse"
       gradientTransform="scale(1.4142149,0.70710613)"
       x1="418.28439"
       y1="195.69078"
       x2="342.163"
       y2="271.73722"
       id="a-3">
      <stop
         stop-color="#4346DE"
         stop-opacity=".24"
         offset="0%"
         id="stop2-6" />
      <stop
         stop-color="#4346DE"
         stop-opacity=".24"
         offset="100%"
         id="stop4-7" />
    </linearGradient>
    <filter
       x="-79.8%"
       y="-115%"
       width="259.5%"
       height="330%"
       filterUnits="objectBoundingBox"
       id="b-5">
      <feOffset
         dx="24"
         dy="24"
         in="SourceAlpha"
         result="shadowOffsetOuter1"
         id="feOffset7" />
      <feGaussianBlur
         stdDeviation="24"
         in="shadowOffsetOuter1"
         result="shadowBlurOuter1"
         id="feGaussianBlur9" />
      <feColorMatrix
         values="0 0 0 0 0.0941176471 0 0 0 0 0.137254902 0 0 0 0 0.203921569 0 0 0 0.04 0"
         in="shadowBlurOuter1"
         result="shadowMatrixOuter1"
         id="feColorMatrix11" />
      <feMerge
         id="feMerge17">
        <feMergeNode
           in="shadowMatrixOuter1"
           id="feMergeNode13" />
        <feMergeNode
           in="SourceGraphic"
           id="feMergeNode15" />
      </feMerge>
    </filter>
    <linearGradient
       gradientUnits="userSpaceOnUse"
       gradientTransform="scale(1.4134897,0.70746889)"
       x1="0.82137138"
       y1="10.157994"
       x2="0.82137138"
       y2="122.57217"
       id="c-3">
      <stop
         stop-color="#53C0F1"
         stop-opacity=".24"
         offset="0%"
         id="stop20" />
      <stop
         stop-color="#D2F1FF"
         offset="100%"
         id="stop22" />
    </linearGradient>
    <linearGradient
       gradientUnits="userSpaceOnUse"
       gradientTransform="scale(1.059199,0.9441097)"
       x1="162.6786"
       y1="67.386481"
       x2="81.680594"
       y2="106.51338"
       id="d">
      <stop
         stop-color="#25B2F2"
         stop-opacity=".64"
         offset="0%"
         id="stop25" />
      <stop
         stop-color="#85D4F8"
         offset="100%"
         id="stop27" />
    </linearGradient>
    <linearGradient
       gradientUnits="userSpaceOnUse"
       gradientTransform="scale(1.0591928,0.9441152)"
       x1="60.59093"
       y1="60.701048"
       x2="16.993196"
       y2="104.25585"
       id="e">
      <stop
         stop-color="#25B2F2"
         offset="0%"
         id="stop30" />
      <stop
         stop-color="#85D4F8"
         offset="100%"
         id="stop32" />
    </linearGradient>
    <filter
       x="-237.9%"
       y="-215.6%"
       width="575.9%"
       height="531.2%"
       filterUnits="objectBoundingBox"
       id="f">
      <feOffset
         dx="24"
         dy="24"
         in="SourceAlpha"
         result="shadowOffsetOuter1"
         id="feOffset35" />
      <feGaussianBlur
         stdDeviation="24"
         in="shadowOffsetOuter1"
         result="shadowBlurOuter1"
         id="feGaussianBlur37" />
      <feColorMatrix
         values="0 0 0 0 0.0941176471 0 0 0 0 0.137254902 0 0 0 0 0.203921569 0 0 0 0.04 0"
         in="shadowBlurOuter1"
         result="shadowMatrixOuter1"
         id="feColorMatrix39" />
      <feMerge
         id="feMerge45">
        <feMergeNode
           in="shadowMatrixOuter1"
           id="feMergeNode41" />
        <feMergeNode
           in="SourceGraphic"
           id="feMergeNode43" />
      </feMerge>
    </filter>
  </defs>
  <g
     transform="matrix(0.3076848,0,0,0.3076848,0.30518073,-3.8140724)"
     style="fill:none;fill-rule:evenodd"
     id="g31">
    <path
       style="fill:url(#a)"
       id="path19"
       transform="translate(-234,-754)"
       d="m 234,754 h 2880 v 275 L 234,2077 Z" />
    <path
       style="fill:url(#b)"
       id="path21"
       transform="translate(-234,-754)"
       d="M 234,754 H 3114 L 234,1817 Z" />
    <path
       style="fill:url(#c)"
       id="path23"
       d="m 290.58,398.505 -247.964,681.277 2145.263,-2.156 305.166,-400 z"
       transform="rotate(-20,-987.243,1025.684)" />
    <path
       style="fill:#ffa695"
       id="path25"
       d="m 1130.437,826.013 -6.075,87.345 563.268,-205.013 6.075,-87.345 z" />
    <path
       style="fill:#ffe4df"
       id="path27"
       d="M 990.437,737.013 984.362,824.358 1547.63,619.345 1553.705,532 Z" />
    <path
       style="fill:#d3ddec"
       id="path29"
       d="m 2764.47,148.68 -6.108,87.358 326.073,-118.68 6.108,-87.356 V 30 Z" />
  </g>
  <g
     transform="matrix(0.49439682,0,0,0.49439682,-148.12184,448.37788)"
     style="fill:none;fill-rule:evenodd"
     id="g82">
    <path
       style="fill:#d2f1ff"
       d="m 875.47,699.404 -6.108,87.358 187.937,-68.404 6.11,-87.358 z"
       id="path50" />
    <path
       style="fill:#55c3f5"
       d="m 574.419,678.118 -6.076,87.346 563.268,-205.013 6.075,-87.345 z"
       id="path52" />
    <path
       style="stroke:#d3ddec;stroke-width:2"
       d="m 1091.422,704.122 -5.955,85.173 185.88,-67.655 5.957,-85.174 z"
       id="path54" />
    <path
       style="fill:#4346de"
       d="M 793.437,465.013 787.362,552.358 1350.63,347.345 1356.705,260 Z"
       id="path56" />
    <path
       style="fill:#e0e1ff"
       d="M 444.47,462.404 438.362,549.762 626.299,481.358 632.41,394 Z"
       id="path58" />
    <path
       d="m 544,220 100,-50.426 -96.807,-48.812 a 7.087,7.087 0 0 0 -6.393,0 L 444,169.574 Z"
       id="path60"
       style="fill:url(#a-3);fill-rule:nonzero" />
    <path
       style="fill:#6e71e6;fill-rule:nonzero"
       d="m 643,210 -100,49.875 v -40 L 643,170 Z"
       id="path62" />
    <path
       style="opacity:0.63999999;fill:#e0e1ff;fill-rule:nonzero"
       d="M 544,259.875 444,210 v -40 l 100,49.875 z"
       id="path64" />
    <g
       transform="rotate(-133,358.236,311.158)"
       id="g72"
       style="fill-rule:nonzero;filter:url(#b-5)">
      <path
         d="M 86.954,86.716 172.746,43.409 89.693,1.49 a 6.074,6.074 0 0 0 -5.485,0 L 1.161,43.408 86.954,86.715 Z"
         id="path66"
         style="fill:url(#c-3);fill-opacity:0.32000002" />
      <path
         style="fill:url(#d);fill-opacity:0.47999998"
         d="M 172.309,76.796 86.516,119.233 V 85.199 l 85.793,-42.437 z"
         id="path68" />
      <path
         style="fill:url(#e);fill-opacity:0.63999999"
         d="M 86.679,119.729 0.887,77.293 V 43.258 l 85.792,42.437 z"
         id="path70" />
    </g>
    <g
       style="fill-rule:nonzero;filter:url(#f)"
       transform="rotate(-44,1028,-223.824)"
       id="g80">
      <path
         style="fill:#d3ddec;fill-opacity:0.8"
         d="M 29,28.943 58,14.348 29.926,0.22 a 2.059,2.059 0 0 0 -1.854,0 L 0,14.348 Z"
         id="path74" />
      <path
         style="fill:#d3ddec;fill-opacity:0.47999998"
         d="M 48.656,54.035 28.71,63.964 V 28.907 l 29,-14.435 v 33.783 c 0,0.781 -0.443,1.495 -1.145,1.843 l -7.91,3.937 z"
         id="path76" />
      <path
         style="fill:#f8fbff"
         d="M 29,63.964 1.075,50.064 A 2.063,2.063 0 0 1 0,48.254 V 14.473 l 29,14.435 v 35.057 z"
         id="path78" />
    </g>
  </g>
</svg>
